<svg width="12" height="10" viewBox="0 0 12 10" fill="none" xmlns="http://www.w3.org/2000/svg">
<path d="M3.99999 6.17147L9.67399 0.497467C9.93266 0.2388 10.2413 0.109467 10.6 0.109467C10.9587 0.109467 11.2673 0.2388 11.526 0.497467C11.7848 0.756134 11.9142 1.06722 11.9142 1.43072C11.9142 1.79405 11.7848 2.10505 11.526 2.36372L4.94024 8.96372C4.67424 9.22972 4.36082 9.36272 3.99999 9.36272C3.63915 9.36272 3.32574 9.22972 3.05974 8.96372L0.459738 6.36372C0.201071 6.10505 0.0740707 5.79405 0.0787373 5.43072C0.083404 5.06722 0.215154 4.75613 0.473987 4.49747C0.732654 4.2388 1.04365 4.10947 1.40699 4.10947C1.77049 4.10947 2.08157 4.2388 2.34024 4.49747L3.99999 6.17147Z" fill="white"/>
</svg>
