<svg width="28" height="29" viewBox="0 0 28 29" fill="none" xmlns="http://www.w3.org/2000/svg">
<path d="M14.0306 9.46055L6.56659 2.05873C6.56634 2.05848 6.56609 2.05823 6.56584 2.05798C5.86843 1.36091 5.02641 1 4.06266 1C3.09856 1 2.25629 1.36117 1.55873 2.05873L1.55228 2.06517L1.54607 2.07185C0.861038 2.80875 0.5 3.66134 0.5 4.61413C0.5 5.56807 0.862739 6.40065 1.5601 7.08946C1.5604 7.08976 1.56071 7.09007 1.56102 7.09037L8.96055 14.4694L1.55873 21.9334C1.55845 21.9337 1.55818 21.934 1.55791 21.9342C0.860885 22.6316 0.5 23.4736 0.5 24.4373C0.5 25.4021 0.861899 26.2369 1.56521 26.9151L1.56549 26.9153C2.30035 27.6229 3.1519 28 4.10566 28C5.05537 28 5.88925 27.6366 6.58721 26.9422L14.0316 19.5394L21.4334 26.9413L21.44 26.9478L21.4467 26.9541C22.1468 27.6042 22.985 27.9348 23.9373 27.9348C24.8897 27.9348 25.7278 27.6042 26.4279 26.9541L26.4351 26.9475L26.442 26.9405C27.1395 26.2401 27.5 25.3945 27.5 24.4269C27.5 23.4594 27.1395 22.6137 26.4423 21.9129C26.4422 21.9129 26.4422 21.9128 26.4422 21.9128L19.0394 14.4684L26.4413 7.06659L26.4478 7.06004L26.4541 7.05326C27.1042 6.35316 27.4348 5.51503 27.4348 4.56266C27.4348 3.61028 27.1042 2.77216 26.4541 2.07206L26.4475 2.06488L26.4405 2.05797C25.7373 1.35777 24.8799 1 23.8943 1C22.9108 1 22.0697 1.35686 21.4058 2.06485L14.0306 9.46055Z" fill="url(#paint0_linear_2536_6082)" stroke="#7C93F8"/>
<defs>
<linearGradient id="paint0_linear_2536_6082" x1="29.89" y1="27.5" x2="-5.11131" y2="-5.12052" gradientUnits="userSpaceOnUse">
<stop stop-color="#4664F0"/>
<stop offset="1" stop-color="#B3C3FF"/>
</linearGradient>
</defs>
</svg>
