<svg width="32" height="29" viewBox="0 0 32 29" fill="none" xmlns="http://www.w3.org/2000/svg">
<path d="M11.7739 25.5366L11.7731 25.5359C8.81264 22.8012 6.2106 20.1576 3.96823 17.6049C1.67419 14.9936 0.5 12.1824 0.5 9.18125C0.5 6.77321 1.31392 4.73524 2.94629 3.1026L2.94635 3.10254C4.57823 1.47093 6.60746 0.65625 8.99988 0.65625C10.3715 0.65625 11.7044 0.973197 12.9937 1.60023L12.9938 1.60027C14.1303 2.15325 15.1365 2.96916 16.0145 4.03568C16.947 2.97259 17.9574 2.15751 19.0487 1.60396L19.0488 1.60392C20.2934 0.972893 21.6125 0.65625 23.0001 0.65625C25.3925 0.65625 27.4218 1.47093 29.0537 3.10254L29.0537 3.1026C30.6861 4.73524 31.5 6.77321 31.5 9.18125C31.5 12.182 30.3282 14.9952 28.0387 17.6106C25.7998 20.1683 23.1908 22.8146 20.2131 25.5496L18.0456 27.5426C17.7691 27.8169 17.4435 28.0206 17.0741 28.1522M11.7739 25.5366L17.6999 27.1813C17.4749 27.4063 17.2104 27.5729 16.9064 27.6811C16.6021 27.7896 16.3 27.8439 16 27.8439C15.7 27.8439 15.3979 27.7896 15.0936 27.6811M11.7739 25.5366L13.9543 27.5425M11.7739 25.5366L12.1124 25.1686L14.3001 27.1813M17.0741 28.1522L16.9067 27.682L17.0743 28.1521C17.0743 28.1521 17.0742 28.1521 17.0741 28.1522ZM17.0741 28.1522C16.7202 28.2783 16.3614 28.3439 16 28.3439C15.6386 28.3439 15.2798 28.2783 14.9259 28.1522M14.9259 28.1522L15.0936 27.6811M14.9259 28.1522C14.9258 28.1521 14.9258 28.1521 14.9257 28.1521L15.0936 27.6811M14.9259 28.1522C14.5565 28.0206 14.2309 27.8169 13.9543 27.5425M15.0936 27.6811C14.7896 27.5729 14.5251 27.4063 14.3001 27.1813M14.3001 27.1813L13.9616 27.5492L13.9543 27.5425M14.3001 27.1813L13.9466 27.5348C13.9492 27.5374 13.9517 27.54 13.9543 27.5425" fill="url(#paint0_linear_2536_6087)" stroke="#F95B06"/>
<defs>
<linearGradient id="paint0_linear_2536_6087" x1="31" y1="23.8488" x2="4.88875" y2="1.15625" gradientUnits="userSpaceOnUse">
<stop stop-color="#FF600A"/>
<stop offset="1" stop-color="#FFAE83"/>
</linearGradient>
</defs>
</svg>
