<svg width="24" height="20" viewBox="0 0 24 20" fill="none" xmlns="http://www.w3.org/2000/svg">
<path d="M18.8315 20C17.584 20 16.5296 19.5693 15.6682 18.7079C14.8068 17.8466 14.3761 16.7921 14.3761 15.5446C14.3761 14.2971 14.8068 13.2426 15.6682 12.3813C16.5296 11.5199 17.584 11.0892 18.8315 11.0892C20.079 11.0892 21.1335 11.5199 21.9949 12.3813C22.8562 13.2426 23.2869 14.2971 23.2869 15.5446C23.2869 16.7921 22.8562 17.8466 21.9949 18.7079C21.1335 19.5693 20.079 20 18.8315 20ZM11.0099 16.5346H2.69317C2.41258 16.5346 2.17743 16.4393 1.98773 16.2488C1.79783 16.0586 1.70288 15.8226 1.70288 15.541C1.70288 15.2595 1.79783 15.0246 1.98773 14.8365C2.17743 14.6484 2.41258 14.5543 2.69317 14.5543H11.0099C11.2903 14.5543 11.5255 14.6496 11.7154 14.8401C11.9051 15.0305 11.9999 15.2665 11.9999 15.5479C11.9999 15.8294 11.9051 16.0643 11.7154 16.2524C11.5255 16.4405 11.2903 16.5346 11.0099 16.5346ZM5.16829 8.9108C3.92078 8.9108 2.86633 8.48011 2.00496 7.61874C1.14358 6.75736 0.712891 5.70291 0.712891 4.4554C0.712891 3.20789 1.14358 2.15344 2.00496 1.29207C2.86633 0.430689 3.92078 0 5.16829 0C6.4158 0 7.47025 0.430689 8.33163 1.29207C9.19301 2.15344 9.62369 3.20789 9.62369 4.4554C9.62369 5.70291 9.19301 6.75736 8.33163 7.61874C7.47025 8.48011 6.4158 8.9108 5.16829 8.9108ZM21.3067 5.44569H12.9899C12.7095 5.44569 12.4744 5.35044 12.2845 5.15995C12.0948 4.96946 11.9999 4.73352 11.9999 4.45213C11.9999 4.17055 12.0948 3.9357 12.2845 3.74759C12.4744 3.55947 12.7095 3.46541 12.9899 3.46541H21.3067C21.5872 3.46541 21.8224 3.56066 22.0121 3.75115C22.202 3.94145 22.2969 4.17738 22.2969 4.45897C22.2969 4.74055 22.202 4.9754 22.0121 5.16351C21.8224 5.35163 21.5872 5.44569 21.3067 5.44569Z" fill="black"/>
</svg>
